<?xml version="1.0" encoding="utf-8"?>
<!-- Generator: Adobe Illustrator 28.3.0, SVG Export Plug-In . SVG Version: 6.00 Build 0)  -->
<svg version="1.1" id="katman_1" xmlns="http://www.w3.org/2000/svg" xmlns:xlink="http://www.w3.org/1999/xlink" x="0px" y="0px"
	 viewBox="0 0 1920 1080" style="enable-background:new 0 0 1920 1080;" xml:space="preserve">
<style type="text/css">
	.st0{fill:#050403;}
	.st1{fill:#FEFEFC;}
</style>
<g>
	<path class="st0" d="M1255.3,530.7c0-4.5,0-9,0-13.5c0-1.1,0-2.1,0-3.1c0-22.1,2.2-17.3-20.9-26c-8.1-3-16.2-5.9-24.3-8.9
		c-31.9-11.9-45.6-44.6-31.7-75.7c5.2-11.6,10.5-23.2,16.6-34.4c3.8-6.9,2.4-11.3-3-16.6c-15.5-14.8-30.7-29.9-45.4-45.4
		c-6.6-7-12.5-7.2-20.5-3c-0.6,0.3-1.3,0.7-1.9,1c-1.1,0.6-2.3,1.3-3.4,2.1c-7.1,4.7-15.5,7.5-23.3,11.3
		c-34.8,17.1-68.5,3.4-81.2-33c-3.7-10.8-7.7-21.4-11.3-32.2c-1.7-5.1-4.3-8.1-8.7-9.3c-1.6-0.4-3.4-0.6-5.4-0.5
		c-13.4,0.3-26.8,0.2-40.2,0.1c-4.8,0-9.6,0-14.5,0.1c-9.3,0.1-14.4-0.3-17.7,0.3c-5.8,1-5.6,5.2-11.4,20.6
		c-3,8.1-5.9,16.2-8.9,24.3c-3.8,10.3-9.8,18.6-17.2,24.8c-0.1,0.1-0.2,0.2-0.4,0.3c-14.6,11.1-34.6,14.6-52.3,7.3
		c-13-5.4-25.8-11.4-38.4-17.6c-4.1-2-7.6-2.6-10.9-1.7c-2.6,0.5-4.9,2.2-7.5,4.9c-5.1,5.3-10.2,10.6-15.4,15.9
		c-2.6,2.6-5.2,5.2-7.8,7.9c-3.1,3.2-6.3,6.3-9.5,9.4c-0.4,0.4-0.8,0.7-1.2,1.1c-3.8,3.7-7.7,7.4-11.6,11.1c-1.1,1-2.1,2.1-2.8,3.1
		c-2.1,2.4-3.1,4.7-2.9,7.3c-0.2,3.1,0.7,6.3,2.7,10.1c5.7,10.8,11.1,21.9,16,33.2c10.4,24,3.2,50.2-15.6,65.4c0,0-0.1,0.1-0.1,0.1
		c-4.3,3.2-9.2,6-14.6,8c-4.3,1.6-8.6,3.2-12.9,4.7c-2.5,0.8-5,1.6-7.4,2.6c-4.4,1.5-8.8,3-13.2,4.5c-0.7,0.2-1.3,0.4-1.9,0.7
		c-5.5,2.2-9.1,5.4-10.4,10.7c-0.5,1.9-0.7,4-0.6,6.5c0.5,13.1,0.6,26.2,0.4,39.4c-0.1,7.4-0.2,14.8-0.4,22.2
		c-0.2,8.6,2.9,13.6,11.1,16.3c11.2,3.6,22.3,8,33.4,11.9c30.9,10.9,45.4,42.2,33.1,72.7c-5.1,12.6-10.8,25.1-17.1,37.2
		c-3.4,6.6-3.5,11.1,2.3,16.6c16.4,15.8,32.5,32,48.3,48.4c4.7,4.9,8.9,4.9,14.5,2.2c11.4-5.7,22.9-11.2,34.5-16.4
		c32-14.4,64.3-1.2,76.9,31.5c3.4,8.9,6.5,18,9.6,27c0.9,2.5,1.4,5.1,1.7,7.7c2.3,5.8,5.6,9.4,11.4,10.6c1.7,0.4,3.6,0.5,5.8,0.4
		c13.4-0.5,26.9-0.6,40.3-0.4c5.5,0.1,11,0.1,16.4,0.3c1.6,0,3.2,0.1,4.8,0.1c1.5,0,2.8,0,4-0.2c0,0,0,0,0,0
		c6.6,0.7,10.1-2.9,12.2-9.7c3.7-12.2,8.4-24.1,12.7-36.1c1-2.9,2.3-5.6,3.7-8.2c0.2-0.3,0.4-0.7,0.5-1
		c13.7-23.5,41.1-33.2,67.8-22.4c12.6,5.1,25.1,10.8,37.2,17.1c6.6,3.4,11.1,3.5,16.6-2.3c0.7-0.8,1.5-1.6,2.3-2.3
		c1.5-1.6,3.1-3.2,4.6-4.8c10.8-11.1,21.9-22.1,33.1-33c1-0.9,1.9-1.8,2.9-2.7c1.7-1.5,3.2-3,4.4-4.4c0.4-0.4,0.7-0.7,1.1-1.1
		c3.5-3.4,4.6-6.5,3.8-10c0.2-4.1-1.3-8.4-4.6-13.4c-4.7-7.1-7.5-15.5-11.3-23.3c-9.4-19.2-9.4-38.1-1.5-53.2
		c0.1-0.1,0.1-0.2,0.2-0.3c6.5-12.2,18.2-22,34.4-27.6c10.7-3.7,21.4-7.7,32.2-11.3c5.4-1.8,8.5-4.6,9.4-9.4c0.3-1.4,0.5-3,0.4-4.8
		C1255.1,558.2,1255.3,544.4,1255.3,530.7z M958.9,677.3c-75.9,0-137.4-61.5-137.4-137.4c0-75.9,61.5-137.4,137.4-137.4
		c75.9,0,137.4,61.5,137.4,137.4C1096.3,615.7,1034.8,677.3,958.9,677.3z"/>
	<path class="st0" d="M870.4,936.5c-21.4,0-41.5-6.2-58-17.8c-17.5-12.3-26.4-28.4-26.6-47.7c0-0.4,0-0.8,0-1.2c0-0.4,0-0.7,0-1.1
		c0-22.2,18.1-40.3,40.3-40.3c22.2,0,40.3,18.1,40.3,40.3c0,11-4.4,21.1-11.7,28.4c4,1.3,8.2,2,12.5,2c16.1,0,30.9-10,38.5-26.1
		c8.8-18.5,13.3-39.5,14.1-65.9c0.1-1.8,0.1-3.6,0.1-5.4v-35.8l-0.1-11V683c-29.4-8-56-25.2-75.6-49c-21.8-26.4-33.7-59.9-33.7-94.2
		c0-34.3,12-67.8,33.7-94.2c19.5-23.8,46.1-40.9,75.6-49v-86h0v-15.5l0-0.2c1.8-53.5,21.3-96.1,57.9-126.7
		c19.3-16.1,44.1-25,69.7-25c21.4,0,41.5,6.2,58,17.8c17.5,12.3,26.4,28.4,26.6,47.7c0,0.4,0,0.8,0,1.2c0,0.4,0,0.7,0,1.1
		c0,22.2-18.1,40.3-40.3,40.3c-22.2,0-40.3-18.1-40.3-40.3c0-11,4.4-21.1,11.7-28.4c-4-1.3-8.2-2-12.5-2c-16.1,0-30.9,10-38.5,26
		c-8.8,18.5-13.3,39.5-14.1,65.9l0,0.1c-0.1,1.8-0.1,3.5-0.1,5.3v32.7l0,11v75c29.4,8,56,25.2,75.5,49
		c21.8,26.5,33.7,59.9,33.7,94.2c0,34.3-12,67.8-33.7,94.2c-19.5,23.8-46.1,40.9-75.5,49v82.9h0v18.6l0,0.2
		c-1.8,53.5-21.3,96.1-57.9,126.7C920.8,927.6,896,936.5,870.4,936.5z M998,594.8c17.4-12.5,28.4-33,28.4-55c0-22-10.9-42.5-28.4-55
		V594.8z M919.8,484.9c-17.4,12.5-28.4,33-28.4,55c0,22,10.9,42.5,28.4,55V484.9z"/>
	<path class="st1" d="M1121,208.8c-0.2-17-8.7-29.4-22-38.8c-33.1-23.3-81.6-20.6-114.3,6.7c-36.9,30.8-52.4,71.8-53.9,118.6v26.3h0
		v83.7c-62.4,13-109.3,68.3-109.3,134.5c0,66.2,46.9,121.5,109.3,134.5V755h0.1v46.9c0,1.9-0.1,3.8-0.1,5.6
		c-0.7,24.2-4.5,48-15.1,70.3c-15.9,33.3-55,42.8-82.7,19.3c12.9-3,22.5-14.6,22.5-28.5c0-16.2-13.1-29.3-29.3-29.3
		c-16.2,0-29.3,13.1-29.3,29.3c0,0.4,0,0.7,0,1.1c0,0.4,0,0.7,0,1.1c0.2,17,8.7,29.4,22,38.8c33.1,23.3,81.6,20.6,114.3-6.7
		c36.9-30.8,52.4-71.8,53.9-118.6V755h0v-80.6c62.4-13,109.3-68.3,109.3-134.5c0-66.3-46.9-121.6-109.3-134.5v-83.7h0v-43.8
		c0-1.9,0.1-3.8,0.1-5.6c0.7-24.2,4.5-48,15.1-70.3c15.9-33.3,55-42.8,82.7-19.3c-12.9,3-22.5,14.6-22.5,28.5
		c0,16.2,13.1,29.3,29.3,29.3c16.2,0,29.3-13.1,29.3-29.3c0-0.4,0-0.7,0-1.1C1121,209.6,1121,209.2,1121,208.8z M880.4,539.9
		c0-33.4,20.9-62,50.4-73.3v146.5C901.3,601.8,880.4,573.3,880.4,539.9z M1037.4,539.9c0,33.4-20.9,62-50.4,73.3V466.6
		C1016.5,477.9,1037.4,506.4,1037.4,539.9z"/>
</g>
</svg>
